<?xml version="1.0" encoding="UTF-8"?>
<svg version="1.1" xmlns="http://www.w3.org/2000/svg" width="500" height="500">
<path d="M0 0 C12.77531018 7.42289574 21.06580797 18.35709009 24.890625 32.65234375 C25.40591393 36.31304218 25.37096024 39.94178089 25.328125 43.62890625 C25.32361328 44.36947266 25.31910156 45.11003906 25.31445312 45.87304688 C25.30274675 47.68753524 25.28481398 49.50198159 25.265625 51.31640625 C25.88791992 51.30593262 26.51021484 51.29545898 27.15136719 51.28466797 C41.34580776 51.07891369 55.18530735 51.50678796 69.265625 53.31640625 C70.13316406 53.42355957 71.00070312 53.53071289 71.89453125 53.64111328 C116.54073777 59.2218891 157.35979481 77.91281978 192.375 106.00390625 C194.0994378 107.38345649 195.85209256 108.73038335 197.65625 110.00390625 C198.18734375 110.43703125 198.7184375 110.87015625 199.265625 111.31640625 C199.265625 111.97640625 199.265625 112.63640625 199.265625 113.31640625 C199.925625 113.31640625 200.585625 113.31640625 201.265625 113.31640625 C201.265625 113.97640625 201.265625 114.63640625 201.265625 115.31640625 C201.80703125 115.53296875 202.3484375 115.74953125 202.90625 115.97265625 C206.08207844 117.78140622 208.47290581 120.23364424 211.015625 122.81640625 C211.52222656 123.31527344 212.02882813 123.81414062 212.55078125 124.328125 C216.265625 128.06299486 216.265625 128.06299486 216.265625 130.31640625 C216.925625 130.31640625 217.585625 130.31640625 218.265625 130.31640625 C218.265625 130.97640625 218.265625 131.63640625 218.265625 132.31640625 C218.925625 132.31640625 219.585625 132.31640625 220.265625 132.31640625 C229.76712221 141.25105277 237.52120379 153.2434759 244.265625 164.31640625 C244.74257813 165.0434375 245.21953125 165.77046875 245.7109375 166.51953125 C255.05486136 181.12260351 260.98021794 197.61422224 265.265625 214.31640625 C265.47590332 215.07808105 265.68618164 215.83975586 265.90283203 216.62451172 C269.29950325 229.19192628 269.65586899 241.69296396 269.703125 254.62890625 C269.71252106 255.83664703 269.71252106 255.83664703 269.72210693 257.06878662 C269.77665174 268.16116484 268.71958786 278.50084857 266.265625 289.31640625 C266.07234619 290.19981689 265.87906738 291.08322754 265.67993164 291.9934082 C263.08636178 303.27281795 258.87267645 313.22604264 253.265625 323.31640625 C252.54246094 324.66605469 252.54246094 324.66605469 251.8046875 326.04296875 C235.27701483 355.37242256 207.45230541 375.36745368 175.375 384.4296875 C166.43387693 386.85653275 157.48660106 388.37660842 148.265625 389.31640625 C147.51152344 389.39600586 146.75742187 389.47560547 145.98046875 389.55761719 C72.34837859 397.15129583 -11.48785273 404.71362594 -84.734375 392.31640625 C-86.11972256 392.09851848 -87.50513563 391.88104672 -88.890625 391.6640625 C-119.90168043 386.42319413 -150.27062132 373.61236445 -169.48828125 347.71484375 C-178.46946312 334.99290696 -185.13434507 321.4824898 -188.734375 306.31640625 C-188.93546875 305.54296875 -189.1365625 304.76953125 -189.34375 303.97265625 C-192.75805724 290.10849957 -193.14083427 276.07466471 -193.109375 261.87890625 C-193.10855927 260.49152252 -193.10855927 260.49152252 -193.10772705 259.07611084 C-193.06841131 244.51010221 -192.31383237 230.50075522 -188.734375 216.31640625 C-188.52006836 215.45547363 -188.30576172 214.59454102 -188.08496094 213.70751953 C-182.4126781 191.67478771 -172.85243226 167.42349908 -158.734375 149.31640625 C-158.074375 149.31640625 -157.414375 149.31640625 -156.734375 149.31640625 C-156.445625 148.55328125 -156.156875 147.79015625 -155.859375 147.00390625 C-154.734375 144.31640625 -154.734375 144.31640625 -152.734375 141.31640625 C-152.074375 141.31640625 -151.414375 141.31640625 -150.734375 141.31640625 C-150.4765625 140.754375 -150.21875 140.19234375 -149.953125 139.61328125 C-148.59267723 137.04936046 -147.00648538 134.8641426 -145.234375 132.56640625 C-144.32171875 131.36757813 -144.32171875 131.36757813 -143.390625 130.14453125 C-142.8440625 129.54125 -142.2975 128.93796875 -141.734375 128.31640625 C-141.074375 128.31640625 -140.414375 128.31640625 -139.734375 128.31640625 C-139.734375 127.65640625 -139.734375 126.99640625 -139.734375 126.31640625 C-139.074375 126.31640625 -138.414375 126.31640625 -137.734375 126.31640625 C-137.734375 125.65640625 -137.734375 124.99640625 -137.734375 124.31640625 C-137.074375 124.31640625 -136.414375 124.31640625 -135.734375 124.31640625 C-135.734375 123.65640625 -135.734375 122.99640625 -135.734375 122.31640625 C-135.074375 122.31640625 -134.414375 122.31640625 -133.734375 122.31640625 C-133.5075 121.75953125 -133.280625 121.20265625 -133.046875 120.62890625 C-131.35887464 117.65481037 -129.26760983 115.5963176 -126.734375 113.31640625 C-126.074375 113.31640625 -125.414375 113.31640625 -124.734375 113.31640625 C-124.734375 112.65640625 -124.734375 111.99640625 -124.734375 111.31640625 C-124.074375 111.31640625 -123.414375 111.31640625 -122.734375 111.31640625 C-122.734375 110.65640625 -122.734375 109.99640625 -122.734375 109.31640625 C-121.16496699 107.87827952 -119.52563465 106.51610575 -117.859375 105.19140625 C-116.86292969 104.39605469 -115.86648437 103.60070312 -114.83984375 102.78125 C-113.81503906 101.96785156 -112.79023437 101.15445313 -111.734375 100.31640625 C-110.78175781 99.53394531 -109.82914062 98.75148438 -108.84765625 97.9453125 C-107.96464844 97.22214844 -107.08164063 96.49898438 -106.171875 95.75390625 C-105.36621094 95.09261719 -104.56054688 94.43132812 -103.73046875 93.75 C-101.734375 92.31640625 -101.734375 92.31640625 -99.734375 92.31640625 C-100.28867188 91.28902344 -100.84296875 90.26164062 -101.4140625 89.203125 C-107.44232491 77.78384598 -111.63032724 67.44345292 -108.734375 54.31640625 C-105.29586387 44.4603291 -98.99217808 36.70043547 -89.734375 31.87890625 C-81.31546084 27.86390778 -73.91672405 27.02675723 -64.734375 27.19140625 C-63.76886719 27.20042969 -62.80335938 27.20945312 -61.80859375 27.21875 C-59.45025401 27.2420999 -57.09245214 27.27484578 -54.734375 27.31640625 C-54.29726196 26.31867188 -54.29726196 26.31867188 -53.85131836 25.30078125 C-49.37834782 15.29226371 -41.88320067 6.66273841 -32.296875 1.19140625 C-31.76191406 0.87945312 -31.22695312 0.5675 -30.67578125 0.24609375 C-21.20688053 -4.28830941 -9.52888553 -4.52779826 0 0 Z " fill="#F6EBB5" transform="translate(211.734375,53.68359375)"/>
<path d="M0 0 C12.77531018 7.42289574 21.06580797 18.35709009 24.890625 32.65234375 C25.40591393 36.31304218 25.37096024 39.94178089 25.328125 43.62890625 C25.32361328 44.36947266 25.31910156 45.11003906 25.31445312 45.87304688 C25.30274675 47.68753524 25.28481398 49.50198159 25.265625 51.31640625 C25.88791992 51.30593262 26.51021484 51.29545898 27.15136719 51.28466797 C41.34580776 51.07891369 55.18530735 51.50678796 69.265625 53.31640625 C70.13316406 53.42355957 71.00070312 53.53071289 71.89453125 53.64111328 C116.54073777 59.2218891 157.35979481 77.91281978 192.375 106.00390625 C194.0994378 107.38345649 195.85209256 108.73038335 197.65625 110.00390625 C198.18734375 110.43703125 198.7184375 110.87015625 199.265625 111.31640625 C199.265625 111.97640625 199.265625 112.63640625 199.265625 113.31640625 C199.925625 113.31640625 200.585625 113.31640625 201.265625 113.31640625 C201.265625 113.97640625 201.265625 114.63640625 201.265625 115.31640625 C201.80703125 115.53296875 202.3484375 115.74953125 202.90625 115.97265625 C206.08207844 117.78140622 208.47290581 120.23364424 211.015625 122.81640625 C211.52222656 123.31527344 212.02882813 123.81414062 212.55078125 124.328125 C216.265625 128.06299486 216.265625 128.06299486 216.265625 130.31640625 C216.925625 130.31640625 217.585625 130.31640625 218.265625 130.31640625 C218.265625 130.97640625 218.265625 131.63640625 218.265625 132.31640625 C218.925625 132.31640625 219.585625 132.31640625 220.265625 132.31640625 C229.76712221 141.25105277 237.52120379 153.2434759 244.265625 164.31640625 C244.74257813 165.0434375 245.21953125 165.77046875 245.7109375 166.51953125 C255.05486136 181.12260351 260.98021794 197.61422224 265.265625 214.31640625 C265.47590332 215.07808105 265.68618164 215.83975586 265.90283203 216.62451172 C269.29950325 229.19192628 269.65586899 241.69296396 269.703125 254.62890625 C269.71252106 255.83664703 269.71252106 255.83664703 269.72210693 257.06878662 C269.77665174 268.16116484 268.71958786 278.50084857 266.265625 289.31640625 C266.07234619 290.19981689 265.87906738 291.08322754 265.67993164 291.9934082 C263.08636178 303.27281795 258.87267645 313.22604264 253.265625 323.31640625 C252.54246094 324.66605469 252.54246094 324.66605469 251.8046875 326.04296875 C235.27701483 355.37242256 207.45230541 375.36745368 175.375 384.4296875 C166.43387693 386.85653275 157.48660106 388.37660842 148.265625 389.31640625 C147.51152344 389.39600586 146.75742187 389.47560547 145.98046875 389.55761719 C72.34837859 397.15129583 -11.48785273 404.71362594 -84.734375 392.31640625 C-86.11972256 392.09851848 -87.50513563 391.88104672 -88.890625 391.6640625 C-119.90168043 386.42319413 -150.27062132 373.61236445 -169.48828125 347.71484375 C-178.46946312 334.99290696 -185.13434507 321.4824898 -188.734375 306.31640625 C-188.93546875 305.54296875 -189.1365625 304.76953125 -189.34375 303.97265625 C-192.75805724 290.10849957 -193.14083427 276.07466471 -193.109375 261.87890625 C-193.10855927 260.49152252 -193.10855927 260.49152252 -193.10772705 259.07611084 C-193.06841131 244.51010221 -192.31383237 230.50075522 -188.734375 216.31640625 C-188.52006836 215.45547363 -188.30576172 214.59454102 -188.08496094 213.70751953 C-182.4126781 191.67478771 -172.85243226 167.42349908 -158.734375 149.31640625 C-158.074375 149.31640625 -157.414375 149.31640625 -156.734375 149.31640625 C-156.445625 148.55328125 -156.156875 147.79015625 -155.859375 147.00390625 C-154.734375 144.31640625 -154.734375 144.31640625 -152.734375 141.31640625 C-152.074375 141.31640625 -151.414375 141.31640625 -150.734375 141.31640625 C-150.4765625 140.754375 -150.21875 140.19234375 -149.953125 139.61328125 C-148.59267723 137.04936046 -147.00648538 134.8641426 -145.234375 132.56640625 C-144.32171875 131.36757813 -144.32171875 131.36757813 -143.390625 130.14453125 C-142.8440625 129.54125 -142.2975 128.93796875 -141.734375 128.31640625 C-141.074375 128.31640625 -140.414375 128.31640625 -139.734375 128.31640625 C-139.734375 127.65640625 -139.734375 126.99640625 -139.734375 126.31640625 C-139.074375 126.31640625 -138.414375 126.31640625 -137.734375 126.31640625 C-137.734375 125.65640625 -137.734375 124.99640625 -137.734375 124.31640625 C-137.074375 124.31640625 -136.414375 124.31640625 -135.734375 124.31640625 C-135.734375 123.65640625 -135.734375 122.99640625 -135.734375 122.31640625 C-135.074375 122.31640625 -134.414375 122.31640625 -133.734375 122.31640625 C-133.5075 121.75953125 -133.280625 121.20265625 -133.046875 120.62890625 C-131.35887464 117.65481037 -129.26760983 115.5963176 -126.734375 113.31640625 C-126.074375 113.31640625 -125.414375 113.31640625 -124.734375 113.31640625 C-124.734375 112.65640625 -124.734375 111.99640625 -124.734375 111.31640625 C-124.074375 111.31640625 -123.414375 111.31640625 -122.734375 111.31640625 C-122.734375 110.65640625 -122.734375 109.99640625 -122.734375 109.31640625 C-121.16496699 107.87827952 -119.52563465 106.51610575 -117.859375 105.19140625 C-116.86292969 104.39605469 -115.86648437 103.60070312 -114.83984375 102.78125 C-113.81503906 101.96785156 -112.79023437 101.15445313 -111.734375 100.31640625 C-110.78175781 99.53394531 -109.82914062 98.75148438 -108.84765625 97.9453125 C-107.96464844 97.22214844 -107.08164063 96.49898438 -106.171875 95.75390625 C-105.36621094 95.09261719 -104.56054688 94.43132812 -103.73046875 93.75 C-101.734375 92.31640625 -101.734375 92.31640625 -99.734375 92.31640625 C-100.28867188 91.28902344 -100.84296875 90.26164062 -101.4140625 89.203125 C-107.44232491 77.78384598 -111.63032724 67.44345292 -108.734375 54.31640625 C-105.29586387 44.4603291 -98.99217808 36.70043547 -89.734375 31.87890625 C-81.31546084 27.86390778 -73.91672405 27.02675723 -64.734375 27.19140625 C-63.76886719 27.20042969 -62.80335938 27.20945312 -61.80859375 27.21875 C-59.45025401 27.2420999 -57.09245214 27.27484578 -54.734375 27.31640625 C-54.29726196 26.31867188 -54.29726196 26.31867188 -53.85131836 25.30078125 C-49.37834782 15.29226371 -41.88320067 6.66273841 -32.296875 1.19140625 C-31.76191406 0.87945312 -31.22695312 0.5675 -30.67578125 0.24609375 C-21.20688053 -4.28830941 -9.52888553 -4.52779826 0 0 Z M-28.734375 26.31640625 C-29.28996094 26.84878906 -29.84554687 27.38117188 -30.41796875 27.9296875 C-35.82455524 34.59219493 -34.16465655 44.25930218 -33.734375 52.31640625 C-33.67491699 53.49831543 -33.67491699 53.49831543 -33.61425781 54.70410156 C-33.37718783 59.24636235 -33.08038535 63.78119915 -32.734375 68.31640625 C-33.25644531 67.82011719 -33.77851563 67.32382813 -34.31640625 66.8125 C-40.04404942 61.52621637 -45.97850414 57.20078615 -52.734375 53.31640625 C-53.48589844 52.87941406 -54.23742187 52.44242188 -55.01171875 51.9921875 C-61.65033098 48.57084123 -68.89547424 47.89507896 -76.1015625 50.01171875 C-80.8765438 52.15595564 -84.03217561 54.8408885 -86.734375 59.31640625 C-88.20259937 65.58644639 -86.18287128 70.62252437 -83.14453125 76.08984375 C-77.39279087 85.17153908 -67.89834535 87.39196615 -58.140625 90.484375 C-55.734375 91.31640625 -55.734375 91.31640625 -54.734375 92.31640625 C-55.26691895 92.54191162 -55.79946289 92.76741699 -56.34814453 92.99975586 C-76.05041646 101.41360536 -91.51949149 111.70536941 -107.390625 126.1953125 C-109.53361812 128.13472128 -111.71782138 130.00969924 -113.921875 131.87890625 C-117.22152289 134.75619921 -120.08449353 137.84070208 -122.90625 141.18359375 C-124.15185348 142.63679781 -125.43536558 144.0581521 -126.75 145.44921875 C-157.7611892 178.35677563 -172.01044319 222.2759294 -170.98046875 266.86328125 C-170.90588094 269.34789086 -170.82466181 271.83231757 -170.734375 274.31640625 C-170.70102051 275.24001953 -170.66766602 276.16363281 -170.63330078 277.11523438 C-169.41610409 302.83830953 -160.14560064 326.4234506 -141.734375 344.31640625 C-140.95964844 345.08855469 -140.18492187 345.86070312 -139.38671875 346.65625 C-123.73670478 361.45417609 -103.14269926 365.99069379 -82.734375 370.31640625 C-81.52801392 370.5740123 -80.32165283 370.83161835 -79.07873535 371.09703064 C-67.8083428 373.36418663 -56.87594734 373.77172811 -45.40625 373.75 C-43.44244628 373.75604297 -41.47864497 373.76291742 -39.5148468 373.77055359 C-34.26049996 373.78534336 -29.00643201 373.77761468 -23.75209427 373.76242828 C-20.46703656 373.75386103 -17.18200988 373.75074373 -13.89694214 373.74871826 C17.50691729 373.71658273 48.8382368 373.00495747 80.203125 371.44140625 C81.07896744 371.39784374 81.95480988 371.35428123 82.85719299 371.30939865 C94.6644878 370.71749198 106.46636311 370.05071365 118.265625 369.31640625 C118.95566872 369.27384201 119.64571243 369.23127777 120.35666656 369.18742371 C124.87024246 368.90811144 129.38257532 368.61317066 133.89453125 368.30859375 C134.98378403 368.23818878 136.0730368 368.16778381 137.19529724 368.09524536 C171.763478 365.64300502 200.8184809 353.53036304 223.703125 327.31640625 C243.67103407 302.31512707 249.79527907 270.69790699 247.265625 239.31640625 C243.10122389 203.91645442 227.37510732 174.76199429 204.265625 148.31640625 C203.54246094 147.46949219 202.81929688 146.62257813 202.07421875 145.75 C198.4764225 141.58894798 194.76636871 137.84507843 190.55859375 134.3046875 C188.29588889 132.3426487 186.14363034 130.28731879 183.98583984 128.21142578 C155.51548401 101.08310693 117.71714672 84.34820146 79.390625 77.19140625 C78.13717285 76.95357422 78.13717285 76.95357422 76.85839844 76.7109375 C62.48170862 74.12563174 48.14869693 72.96073541 33.55126953 73.00073242 C31.13398943 73.00391499 28.71791383 72.98021084 26.30078125 72.95507812 C9.84220623 72.78340774 9.84220623 72.78340774 -5.734375 77.31640625 C-5.41984375 76.74277344 -5.1053125 76.16914063 -4.78125 75.578125 C0.47383624 65.14709538 5.65812679 49.13200719 3.265625 37.31640625 C0.64726652 29.58877304 -3.62053984 24.16072929 -10.75 20.1953125 C-18.40627172 16.80424727 -23.41074566 21.17188967 -28.734375 26.31640625 Z " fill="#FBFAFA" transform="translate(211.734375,53.68359375)"/>
<path d="M0 0 C7.33713566 3.1322275 11.47542969 8.63937856 15.375 15.375 C18.60157625 28.92662026 13.51298587 46.12180855 7 58 C7.79664063 57.79503906 8.59328125 57.59007812 9.4140625 57.37890625 C10.47367188 57.10949219 11.53328125 56.84007812 12.625 56.5625 C13.66914063 56.29566406 14.71328125 56.02882812 15.7890625 55.75390625 C21.48951876 54.41547795 26.95958772 53.82474756 32.80859375 53.76171875 C33.93545593 53.7472319 33.93545593 53.7472319 35.08508301 53.73245239 C37.53593912 53.70754685 39.98653063 53.6950268 42.4375 53.6875 C43.27725372 53.68454926 44.11700745 53.68159851 44.98220825 53.67855835 C102.23427065 53.63305714 158.20372792 72.35196165 200.09765625 112.25 C202.63722064 114.65626289 205.22765802 116.96426797 207.875 119.25 C211.97562488 122.88261878 215.4805528 126.81221333 219 131 C219.83402344 131.93457031 220.66804688 132.86914062 221.52734375 133.83203125 C228.73731533 141.97323204 234.54307121 150.60760816 240 160 C240.36222656 160.61069336 240.72445313 161.22138672 241.09765625 161.85058594 C259.6074127 193.28643614 265.38640168 232.22152805 256.546875 267.59765625 C251.40219234 286.3281365 241.947527 301.64640672 229 316 C228.38253906 316.68964844 227.76507813 317.37929688 227.12890625 318.08984375 C210.18493671 336.00900578 183.26770378 345.72166971 159.12744141 348.06030273 C157.89030112 348.18479247 157.89030112 348.18479247 156.62816811 348.31179714 C148.08474563 349.14055507 139.5327836 349.62106665 130.9609375 350.03515625 C129.29918356 350.11916982 127.63745101 350.20360727 125.97573853 350.28843689 C122.52222194 350.46371734 119.06856577 350.63573013 115.61474609 350.80493164 C111.26809005 351.01787992 106.92173914 351.23640937 102.57546425 351.45698643 C94.21786775 351.88113816 85.85978275 352.29301598 77.50080299 352.68900394 C73.23218704 352.8914529 68.96436976 353.10467376 64.69677734 353.32788086 C45.42739841 354.28142874 26.12089333 354.3225719 6.83180428 354.39285946 C1.30843577 354.41315323 -4.21423651 354.44517869 -9.73730469 354.50756836 C-35.21739792 354.78837597 -59.22989334 354.45235895 -84 348 C-85.76295892 347.56403602 -87.52604858 347.12860018 -89.28930664 346.69384766 C-103.27479548 343.20696514 -116.38313329 336.80573089 -127 327 C-127.85207031 326.21625 -128.70414063 325.4325 -129.58203125 324.625 C-151.98522958 303.12867777 -157.73679548 273.52770156 -158.38330078 243.65332031 C-159.23209349 190.92849788 -135.79190275 148.00518758 -100 111 C-97.42588118 108.54200684 -94.73929567 106.27040722 -92 104 C-91.04738281 103.15953125 -90.09476562 102.3190625 -89.11328125 101.453125 C-74.99194716 89.04537636 -59.28663117 80.27153776 -42 73 C-47.71133397 70.34881287 -53.46061576 68.05800662 -59.421875 66.02734375 C-64.64005497 63.94797809 -67.46380782 61.9271609 -70.25 57 C-70.75015625 56.13375 -71.2503125 55.2675 -71.765625 54.375 C-74.22262306 49.64761133 -74.90515297 45.23944316 -74 40 C-71.62367906 35.56985882 -67.90138457 32.09107515 -63.08203125 30.453125 C-52.24273564 28.09410382 -44.199293 31.17524171 -34.99267578 36.69384766 C-29.55998074 40.25485212 -24.7427563 44.58209002 -20 49 C-20.0721875 48.05382812 -20.144375 47.10765625 -20.21875 46.1328125 C-20.47858028 42.55155392 -20.6891254 38.96910222 -20.87548828 35.38330078 C-20.95844668 33.79537938 -21.04795874 32.20778671 -21.14404297 30.62060547 C-22.07618537 14.01617878 -22.07618537 14.01617878 -16.83984375 7.76953125 C-15.92912109 6.89361328 -15.92912109 6.89361328 -15 6 C-14.36191406 5.38511719 -13.72382813 4.77023438 -13.06640625 4.13671875 C-8.82468941 0.53994131 -5.6846512 -1.11662791 0 0 Z M2.875 67.375 C1.58227173 67.70262329 1.58227173 67.70262329 0.26342773 68.03686523 C-5.10904839 69.42826508 -10.31189987 71.03561651 -15.484375 73.05859375 C-18.18837397 74.07049399 -20.90855158 74.84296609 -23.6875 75.625 C-51.53486135 84.13206982 -73.09165177 98.07903856 -94 118 C-94.60537598 118.57137695 -95.21075195 119.14275391 -95.83447266 119.73144531 C-124.99121926 147.39043987 -147.47096377 185.8838038 -149.16113281 226.91137695 C-149.18061816 228.27027744 -149.19440501 229.62926904 -149.203125 230.98828125 C-149.21018463 231.7248848 -149.21724426 232.46148834 -149.22451782 233.22041321 C-149.44712883 263.2683516 -147.84314018 293.49386409 -125.73046875 316.2734375 C-107.47279514 334.50499141 -85.69009942 339.31254099 -61 344 C-59.72981773 344.26061218 -59.72981773 344.26061218 -58.43397522 344.52648926 C-53.95807772 345.14367063 -49.57175049 345.14747751 -45.05883789 345.14526367 C-43.5760585 345.15030159 -43.5760585 345.15030159 -42.06332397 345.15544128 C-38.78308858 345.16495597 -35.50290461 345.16689746 -32.22265625 345.16796875 C-29.90001913 345.17119084 -27.5773822 345.17455559 -25.25474548 345.17805481 C-20.35626764 345.18405427 -15.45780743 345.18589485 -10.55932617 345.18530273 C-5.63480855 345.1852228 -0.71038657 345.1919441 4.21411133 345.20581055 C35.7230983 345.29318243 67.11094025 344.76937231 98.57844925 343.12524796 C102.21067105 342.93738142 105.84349563 342.76244849 109.47631836 342.58666992 C115.24970318 342.30311058 121.02157917 341.99875971 126.79296875 341.67724609 C130.12207864 341.49325296 133.45162578 341.31894469 136.78125 341.14453125 C158.62176417 340.12292621 158.62176417 340.12292621 179.8125 335.125 C181.02184204 334.72474609 181.02184204 334.72474609 182.25561523 334.31640625 C184.5103117 333.56187915 186.75634722 332.78666608 189 332 C190.01578125 331.64679688 191.0315625 331.29359375 192.078125 330.9296875 C214.14065743 322.6735826 231.80190252 304.21363304 241.6953125 283.11328125 C244.18215253 277.17911507 246.25853113 271.1871312 248 265 C248.32226562 263.85917969 248.64453125 262.71835937 248.9765625 261.54296875 C253.66479267 241.32223769 252.46341547 218.92455703 247 199 C246.51466797 197.17662109 246.51466797 197.17662109 246.01953125 195.31640625 C238.70872871 169.98223745 224.22836707 148.7526101 206 130 C205.36932617 129.34354492 204.73865234 128.68708984 204.08886719 128.01074219 C194.96077514 118.53737952 185.73613695 109.62884834 175 102 C174.09822021 101.34837891 174.09822021 101.34837891 173.17822266 100.68359375 C149.33558324 83.66819647 119.98912143 70.75804067 91 66 C90.11586426 65.85191895 89.23172852 65.70383789 88.32080078 65.55126953 C73.78554597 63.23629409 59.37433056 62.71310279 44.6875 62.6875 C43.85465485 62.68391479 43.02180969 62.68032959 42.16372681 62.67663574 C28.66284204 62.64531466 15.98743107 64.0036837 2.875 67.375 Z " fill="#270C0B" transform="translate(199,73)"/>
<path d="M0 0 C7.33713566 3.1322275 11.47542969 8.63937856 15.375 15.375 C18.54763981 28.70008719 13.36274597 44.56479934 8.44140625 56.9453125 C7 59 7 59 4.609375 59.80078125 C2.28538991 59.97821125 0.01729031 60.10198797 -2.3125 60.0625 C-4.1378125 60.0315625 -4.1378125 60.0315625 -6 60 C-6 60.66 -6 61.32 -6 62 C-6.90363281 62.26554687 -7.80726563 62.53109375 -8.73828125 62.8046875 C-10.50751953 63.33449219 -10.50751953 63.33449219 -12.3125 63.875 C-13.48425781 64.22304687 -14.65601563 64.57109375 -15.86328125 64.9296875 C-19.10911725 65.88765453 -19.10911725 65.88765453 -22 68 C-23.96347766 68.57716854 -25.94570857 69.09225011 -27.9375 69.5625 C-28.97777344 69.81128906 -30.01804688 70.06007813 -31.08984375 70.31640625 C-32.53037109 70.65478516 -32.53037109 70.65478516 -34 71 C-35.33397509 71.33075573 -36.6676163 71.66289087 -38 72 C-38 72.66 -38 73.32 -38 74 C-40.475 74.99 -40.475 74.99 -43 76 C-43.66 75.34 -44.32 74.68 -45 74 C-43.515 73.505 -43.515 73.505 -42 73 C-47.71133397 70.34881287 -53.46061576 68.05800662 -59.421875 66.02734375 C-64.64005497 63.94797809 -67.46380782 61.9271609 -70.25 57 C-71.00023438 55.700625 -71.00023438 55.700625 -71.765625 54.375 C-74.22262306 49.64761133 -74.90515297 45.23944316 -74 40 C-71.62367906 35.56985882 -67.90138457 32.09107515 -63.08203125 30.453125 C-52.24273564 28.09410382 -44.199293 31.17524171 -34.99267578 36.69384766 C-29.55998074 40.25485212 -24.7427563 44.58209002 -20 49 C-20.10828125 47.58074219 -20.10828125 47.58074219 -20.21875 46.1328125 C-20.47858028 42.55155392 -20.6891254 38.96910222 -20.87548828 35.38330078 C-20.95844668 33.79537938 -21.04795874 32.20778671 -21.14404297 30.62060547 C-22.07618537 14.01617878 -22.07618537 14.01617878 -16.83984375 7.76953125 C-15.92912109 6.89361328 -15.92912109 6.89361328 -15 6 C-14.04287109 5.07767578 -14.04287109 5.07767578 -13.06640625 4.13671875 C-8.82468941 0.53994131 -5.6846512 -1.11662791 0 0 Z " fill="#372628" transform="translate(199,73)"/>
<path d="M0 0 C5.23872588 2.43226559 9.39841957 6.79683915 12 12 C12.78352518 18.64877078 12.47526052 23.83259337 8.5 29.34375 C5.0055882 33.20216303 0.93686219 35.69165474 -4.26953125 36.23828125 C-10.09101765 36.40818638 -13.46179647 36.01050544 -18 32 C-23.43201169 26.34657479 -24.47004225 21.79248373 -24.4140625 14.0859375 C-23.76908924 9.27906132 -21.55864188 6.20354963 -18 3 C-12.38377913 -1.11221596 -6.71068508 -0.75315381 0 0 Z " fill="#250604" transform="translate(328,262)"/>
<path d="M0 0 C4.57419236 3.32515091 8.61626823 7.00214364 9.5546875 12.7890625 C10.0938678 18.49193106 9.89530736 22.93977561 6.5546875 27.7890625 C1.60226842 32.77660512 -2.03908347 34.92794327 -9.1953125 35.1640625 C-14.15389088 35.11016491 -17.29006046 34.62360586 -21.04296875 31.3203125 C-26.16041965 25.73245525 -27.17220734 21.22994508 -26.890625 13.73046875 C-25.9590452 7.57713902 -23.1073161 4.14580013 -18.3828125 0.2890625 C-12.75542507 -2.43862311 -5.62315917 -2.78463154 0 0 Z " fill="#270604" transform="translate(174.4453125,269.2109375)"/>
<path d="M0 0 C1.65 0.33 3.3 0.66 5 1 C5.68359375 3.2421875 5.68359375 3.2421875 6 6 C3.6631254 10.32519841 -0.12317187 13.98425606 -4.625 16 C-11.61309585 18.01968088 -18.78054805 18.45254734 -25.48046875 15.4296875 C-27.66425337 14.18827254 -29.81824738 12.89207586 -31.9296875 11.53125 C-35.64477903 9.67843082 -37.89469445 9.486253 -42 10 C-44.71327072 11.39217296 -44.71327072 11.39217296 -47.0625 13.375 C-53.44573197 18.13358408 -59.02341986 20.08771547 -67 19 C-72.91392802 16.59433437 -77.0760806 12.75144585 -80 7 C-80.16015625 4.24609375 -80.16015625 4.24609375 -80 2 C-77.73046875 1.22265625 -77.73046875 1.22265625 -75 1 C-73.11328125 2.87109375 -73.11328125 2.87109375 -71.3125 5.4375 C-68.48822303 8.83319044 -68.48822303 8.83319044 -64.68359375 10.8828125 C-57.65203465 11.40199664 -53.44299962 7.83124427 -47.95703125 3.859375 C-43.67640971 1.16772922 -39.99988862 0.46679509 -35 1 C-31.61619327 2.06857055 -28.88897174 3.44624126 -25.88671875 5.31640625 C-20.48454254 8.59130064 -16.34659786 10.1156129 -10 9 C-5.40928474 7.12198012 -2.97831009 3.82925583 0 0 Z " fill="#270D09" transform="translate(287,289)"/>
<path d="M0 0 C4.3239222 0.6526675 5.4704234 2.36700646 8.11328125 5.67578125 C11.72584419 11.17111315 11.0379024 18.43107619 9.93017578 24.64453125 C7.74605537 34.75127025 4.64161379 43.21925746 -1.6875 51.5 C-3.60839844 50.8527832 -3.60839844 50.8527832 -5.6875 49.5 C-6.50878906 47.00073242 -6.50878906 47.00073242 -6.953125 43.85546875 C-7.12070313 42.70240234 -7.28828125 41.54933594 -7.4609375 40.36132812 C-7.61820313 39.14896484 -7.77546875 37.93660156 -7.9375 36.6875 C-8.11023438 35.51767578 -8.28296875 34.34785156 -8.4609375 33.14257812 C-11.50765787 11.24729801 -11.50765787 11.24729801 -6.75 4.75 C-5.76122177 3.6373323 -4.74736151 2.54518199 -3.6875 1.5 C-2.6875 0.5 -2.6875 0.5 0 0 Z " fill="#79954F" transform="translate(195.6875,81.5)"/>
<path d="M0 0 C11.3323802 4.10954447 22.87716724 13.59327401 29 24 C29 24.99 29 25.98 29 27 C18.22164418 29.12237894 7.35199945 24.66146416 -2.75 21 C-3.41700928 20.76337646 -4.08401855 20.52675293 -4.77124023 20.28295898 C-10.09503159 18.26491039 -12.85434127 15.85675725 -15.8125 11.0625 C-17.12124631 7.68731214 -17.35114876 6.3328336 -16 3 C-11.33101854 -1.39182731 -6.04266977 -0.88000045 0 0 Z " fill="#7A9451" transform="translate(150,112)"/>
<path d="M0 0 C4.67365526 5.45259781 6.476805 9.59128412 6.31640625 16.734375 C5.160022 28.66940261 2.25412552 40.21181604 -3 51 C-6.90625 48.3984375 -6.90625 48.3984375 -7.75 44.8125 C-7.87375 43.4203125 -7.87375 43.4203125 -8 42 C-7.34 42 -6.68 42 -6 42 C-5.855625 41.236875 -5.71125 40.47375 -5.5625 39.6875 C-5 37 -5 37 -4 34 C-2.24042859 24.58565075 -1.73873549 15.55066923 -2 6 C-1.01 6 -0.02 6 1 6 C0.67 4.02 0.34 2.04 0 0 Z " fill="#38242A" transform="translate(209,81)"/>
<path d="M0 0 C2.75 -0.3125 2.75 -0.3125 6 0 C8.375 2.0625 8.375 2.0625 10 5 C10.25 8.8125 10.25 8.8125 10 12 C5.545 12.495 5.545 12.495 1 13 C0.34 12.01 -0.32 11.02 -1 10 C-1.309375 10.804375 -1.61875 11.60875 -1.9375 12.4375 C-3 15 -3 15 -4 16 C-6.875 16.3125 -6.875 16.3125 -10 16 C-11.9375 14.4375 -11.9375 14.4375 -13 12 C-12.875 8.375 -12.875 8.375 -12 5 C-9 3 -9 3 -6.375 3.25 C-5.59125 3.4975 -4.8075 3.745 -4 4 C-3.67 4.66 -3.34 5.32 -3 6 C-2.01 4.02 -1.02 2.04 0 0 Z " fill="#ED9D87" transform="translate(334,296)"/>
<path d="M0 0 C0.66 0.33 1.32 0.66 2 1 C1.01 2.485 1.01 2.485 0 4 C3.465 3.505 3.465 3.505 7 3 C7 7 7 7 4.59375 9.796875 C3.57248913 10.79160961 2.5407803 11.77570689 1.5 12.75 C0.97535156 13.25660156 0.45070313 13.76320312 -0.08984375 14.28515625 C-1.38441363 15.53265087 -2.6910776 16.76757307 -4 18 C-4.66 17.01 -5.32 16.02 -6 15 C-5.34 15 -4.68 15 -4 15 C-4.33 14.34 -4.66 13.68 -5 13 C-6.98 13 -8.96 13 -11 13 C-7.61227103 8.30840284 -4.21814817 3.9700218 0 0 Z " fill="#2B120F" transform="translate(99,184)"/>
<path d="M0 0 C10.32880517 6.00139197 17.97352894 14.44111609 22.76953125 25.40625 C23.265625 27.31640625 23.265625 27.31640625 22.265625 30.31640625 C21.93691406 29.56617188 21.60820312 28.8159375 21.26953125 28.04296875 C15.80218268 16.2785385 7.73721556 5.77905515 -4.73046875 1.078125 C-14.4751209 -1.39288562 -24.37547087 0.04759982 -33.734375 3.31640625 C-32.09970626 0.04706876 -29.1927757 -0.58626626 -25.8828125 -1.84765625 C-17.33683889 -4.11668646 -8.03279218 -3.81690622 0 0 Z " fill="#E3E3E3" transform="translate(211.734375,53.68359375)"/>
<path d="M0 0 C2.4914493 1.01215128 3.52474704 1.52585792 5 3.8125 C5.25250174 6.53092295 5.13481379 9.07128635 5 11.8125 C4.34 11.8125 3.68 11.8125 3 11.8125 C3 12.4725 3 13.1325 3 13.8125 C1.35 13.8125 -0.3 13.8125 -2 13.8125 C-2 13.1525 -2 12.4925 -2 11.8125 C-2.66 11.8125 -3.32 11.8125 -4 11.8125 C-5.34886782 9.0354192 -6.02945279 7.2346566 -5.8125 4.125 C-4.74673207 1.0916605 -3.34322534 -0.31342738 0 0 Z " fill="#EE9885" transform="translate(178,304.1875)"/>
<path d="M0 0 C2.46503067 1.77174079 3.84833352 3.11554496 4.37109375 6.1640625 C4.54067429 12.28891261 4.54067429 12.28891261 2.63671875 14.79296875 C1 16 1 16 -1.625 15.75 C-4 15 -4 15 -5 14 C-5.16796875 12.07421875 -5.16796875 12.07421875 -5.1875 9.6875 C-5.20167969 8.90761719 -5.21585937 8.12773437 -5.23046875 7.32421875 C-4.97356 4.73335935 -4.43895729 3.16560682 -3 1 C-2.01 0.67 -1.02 0.34 0 0 Z " fill="#F7847E" transform="translate(315,297)"/>
<path d="M0 0 C0.73476563 0.25136719 1.46953125 0.50273437 2.2265625 0.76171875 C2.91796875 2.98828125 2.91796875 2.98828125 3.2265625 5.76171875 C1.47886898 9.01142363 -0.8576484 11.50912874 -3.7734375 13.76171875 C-7.2109375 13.76171875 -7.2109375 13.76171875 -9.7734375 12.76171875 C-10.5 11.0625 -10.5 11.0625 -10.7734375 8.76171875 C-9.296875 6.3671875 -9.296875 6.3671875 -7.1484375 3.94921875 C-6.45492188 3.13839844 -5.76140625 2.32757813 -5.046875 1.4921875 C-2.7734375 -0.23828125 -2.7734375 -0.23828125 0 0 Z " fill="#250A08" transform="translate(289.7734375,289.23828125)"/>
<path d="M0 0 C3.5625 0.25 3.5625 0.25 7 1 C8.50934217 4.01868434 8.17510672 6.67297229 8 10 C7.01 11.485 7.01 11.485 6 13 C3 13.375 3 13.375 0 13 C-2.71232939 8.93150591 -2.30699887 6.83523216 -2 2 C-1.34 1.34 -0.68 0.68 0 0 Z " fill="#F48A80" transform="translate(163,306)"/>
<path d="M0 0 C1.4540625 0.0309375 1.4540625 0.0309375 2.9375 0.0625 C2.9375 0.7225 2.9375 1.3825 2.9375 2.0625 C3.5975 2.0625 4.2575 2.0625 4.9375 2.0625 C4.99149736 3.52042884 5.03029177 4.97892712 5.0625 6.4375 C5.08570313 7.24960937 5.10890625 8.06171875 5.1328125 8.8984375 C4.9375 11.0625 4.9375 11.0625 2.9375 13.0625 C-0.0625 13.375 -0.0625 13.375 -3.0625 13.0625 C-5.277515 9.7399775 -5.25660876 9.18518409 -4.75 5.4375 C-4.65074219 4.64085937 -4.55148438 3.84421875 -4.44921875 3.0234375 C-3.81186747 -0.20838413 -3.43569092 0.07011614 0 0 Z " fill="#ED9A85" transform="translate(154.0625,303.9375)"/>
<path d="M0 0 C0.57363281 0.29132813 1.14726562 0.58265625 1.73828125 0.8828125 C14.24717235 6.91896936 27.98249282 11.94404189 42 12 C41.67 12.66 41.34 13.32 41 14 C38.453125 14.78125 38.453125 14.78125 35.25 15.5 C31.32547735 16.3893007 27.70047667 17.41016558 24 19 C24 18.34 24 17.68 24 17 C23.01 16.67 22.02 16.34 21 16 C23.31 15.01 25.62 14.02 28 13 C25.69 12.67 23.38 12.34 21 12 C21 11.34 21 10.68 21 10 C20.07380859 9.81824219 20.07380859 9.81824219 19.12890625 9.6328125 C17.35634158 9.28207672 15.58558667 8.92211331 13.81640625 8.5546875 C12.02024776 8.20093645 10.21498679 7.88903573 8.40234375 7.6328125 C6.11484055 7.26829979 4.12685648 6.92148268 2 6 C0.4375 2.875 0.4375 2.875 0 0 Z " fill="#34271C" transform="translate(136,127)"/>
<path d="M0 0 C7.32431196 0.1650972 12.13949603 1.56369672 18 6 C17.34 7.32 16.68 8.64 16 10 C15.34 10 14.68 10 14 10 C14 10.66 14 11.32 14 12 C12.7315625 11.566875 12.7315625 11.566875 11.4375 11.125 C7.97638959 9.99227296 4.50627443 8.98175684 1 8 C1.66 7.67 2.32 7.34 3 7 C2.42547254 3.06924356 2.42547254 3.06924356 0 0 Z " fill="#2C130E" transform="translate(246,290)"/>
<path d="M0 0 C0.33 0.66 0.66 1.32 1 2 C2.98 1.67 4.96 1.34 7 1 C7 1.66 7 2.32 7 3 C7.99 3.33 8.98 3.66 10 4 C10 4.66 10 5.32 10 6 C9.46375 5.67 8.9275 5.34 8.375 5 C5.4608939 3.77300796 3.13132292 3.85766714 0 4 C-0.66 5.98 -1.32 7.96 -2 10 C-2.66 9.67 -3.32 9.34 -4 9 C-4 8.34 -4 7.68 -4 7 C-6.31 7.33 -8.62 7.66 -11 8 C-11.93786082 13.05009595 -11.93786082 13.05009595 -11 18 C-12.8125 19.0625 -12.8125 19.0625 -15 20 C-15.99 19.67 -16.98 19.34 -18 19 C-17.34 18.34 -16.68 17.68 -16 17 C-15.68136311 14.89410923 -15.68136311 14.89410923 -15.75 12.5625 C-15.74484375 11.78003906 -15.7396875 10.99757813 -15.734375 10.19140625 C-15.86823169 7.70955893 -15.86823169 7.70955893 -18 5 C-16.67935547 4.83564453 -16.67935547 4.83564453 -15.33203125 4.66796875 C-13.58986328 4.43013672 -13.58986328 4.43013672 -11.8125 4.1875 C-10.66394531 4.03667969 -9.51539063 3.88585937 -8.33203125 3.73046875 C-4.98163973 2.99597495 -2.8070271 1.92950074 0 0 Z " fill="#EFCFAF" transform="translate(334,293)"/>
<path d="M0 0 C0 0.66 0 1.32 0 2 C-7 9 -7 9 -8.8125 10.625 C-10.32680994 12.07561063 -10.32680994 12.07561063 -10 15 C-10.66 15 -11.32 15 -12 15 C-13.02028865 13.68212715 -14.01971384 12.34789347 -15 11 C-15.66 10.67 -16.32 10.34 -17 10 C-13.88707619 2.73124389 -7.73651608 -0.96706451 0 0 Z " fill="#3D2A2D" transform="translate(199,73)"/>
<path d="M0 0 C3.3616538 1.41189459 4.98164423 2.37530876 7.125 5.3125 C7.875 9.0625 7.875 9.0625 8.125 12.3125 C6.805 12.3125 5.485 12.3125 4.125 12.3125 C4.125 11.6525 4.125 10.9925 4.125 10.3125 C3.135 10.3125 2.145 10.3125 1.125 10.3125 C1.125 9.6525 1.125 8.9925 1.125 8.3125 C-1.20714148 7.10621992 -3.37142139 6.1470262 -5.875 5.3125 C-5.5 2.875 -5.5 2.875 -4.875 0.3125 C-2.875 -0.6875 -2.875 -0.6875 0 0 Z " fill="#362227" transform="translate(201.875,74.6875)"/>
<path d="M0 0 C2.90630685 2.90630685 2.77541736 6.27130598 3.3125 10.1875 C5.37179931 23.47777895 9.50732122 34.85540764 16.14111328 46.54321289 C17.14728686 48.33325607 18.08082403 50.16376597 19 52 C18.67 52.66 18.34 53.32 18 54 C7.66199237 38.44051136 -1.39481425 19.17869599 0 0 Z " fill="#DEDEDE" transform="translate(21,342)"/>
<path d="M0 0 C1.32 0.33 2.64 0.66 4 1 C3.00226563 1.58201172 3.00226563 1.58201172 1.984375 2.17578125 C-0.27402528 3.83228781 -0.27402528 3.83228781 -0.171875 6.48046875 C-0.03265625 7.37378906 0.1065625 8.26710938 0.25 9.1875 C0.37890625 10.08855469 0.5078125 10.98960938 0.640625 11.91796875 C0.75921875 12.60503906 0.8778125 13.29210937 1 14 C-0.32 14 -1.64 14 -3 14 C-3.99 14.495 -3.99 14.495 -5 15 C-5.99 14.34 -6.98 13.68 -8 13 C-8.1875 9.375 -8.1875 9.375 -8 6 C-7.01 6.33 -6.02 6.66 -5 7 C-4.67 5.68 -4.34 4.36 -4 3 C-3.67 3.33 -3.34 3.66 -3 4 C-2.67 3.34 -2.34 2.68 -2 2 C-1.34 2 -0.68 2 0 2 C0 1.34 0 0.68 0 0 Z " fill="#352027" transform="translate(134,112)"/>
<path d="M0 0 C1.32 0.33 2.64 0.66 4 1 C4 1.66 4 2.32 4 3 C6.64 3 9.28 3 12 3 C10.515 5.475 10.515 5.475 9 8 C8.67 7.34 8.34 6.68 8 6 C7.01 6.495 7.01 6.495 6 7 C6.66 8.32 7.32 9.64 8 11 C6.35 11.66 4.7 12.32 3 13 C2.34 12.34 1.68 11.68 1 11 C1.99 10.67 2.98 10.34 4 10 C1.69 9.01 -0.62 8.02 -3 7 C-2.01 4.69 -1.02 2.38 0 0 Z " fill="#402C30" transform="translate(153,136)"/>
<path d="M0 0 C0.33 0 0.66 0 1 0 C1.32791464 6.04182719 0.17819176 11.14840123 -1.5 16.9375 C-1.76337158 17.85321777 -2.02674316 18.76893555 -2.2980957 19.71240234 C-8.64476614 40.76057561 -8.64476614 40.76057561 -16 47 C-14.87773502 43.22510872 -13.43244399 39.73632076 -11.75 36.1875 C-6.40777346 24.57052808 -2.48593077 12.53868589 0 0 Z " fill="#D8D8D8" transform="translate(478,333)"/>
<path d="M0 0 C0.66 0.33 1.32 0.66 2 1 C1.27554688 1.4846875 0.55109375 1.969375 -0.1953125 2.46875 C-9.81883196 9.14105683 -15.81086604 15.25382598 -18 27 C-18.48903372 31.32938679 -18.80218625 35.64809751 -19 40 C-19.33 40 -19.66 40 -20 40 C-21.67911673 29.75738798 -20.5739759 21.18490882 -14.84765625 12.36328125 C-10.95264204 7.38128633 -5.99694097 2.32792645 0 0 Z " fill="#E4E4E4" transform="translate(123,85)"/>
<path d="M0 0 C2.97 0 5.94 0 9 0 C8.01 1.485 8.01 1.485 7 3 C7 3.66 7 4.32 7 5 C8.65 5 10.3 5 12 5 C11.01 6.485 11.01 6.485 10 8 C7.9765625 8.36328125 7.9765625 8.36328125 5.625 8.3125 C4.85414063 8.30863281 4.08328125 8.30476563 3.2890625 8.30078125 C0.81997531 7.97634488 -0.85179272 7.23105029 -3 6 C-2 3 -2 3 0 1 C0 0.67 0 0.34 0 0 Z " fill="#2C110C" transform="translate(219,300)"/>
<path d="M0 0 C0 0.99 0 1.98 0 3 C-0.515625 3.391875 -1.03125 3.78375 -1.5625 4.1875 C-3.37270393 6.46993104 -3.11564699 7.2905756 -2.8125 10.125 C-2.544375 11.40375 -2.27625 12.6825 -2 14 C-1.34 14.33 -0.68 14.66 0 15 C-2.31 15.66 -4.62 16.32 -7 17 C-6.67 16.01 -6.34 15.02 -6 14 C-5.93259135 12.43881572 -5.91485544 10.8749748 -5.9375 9.3125 C-5.958125 7.889375 -5.97875 6.46625 -6 5 C-10.455 4.01 -10.455 4.01 -15 3 C-15 2.67 -15 2.34 -15 2 C-12.87528825 1.6648342 -10.75022095 1.33192171 -8.625 1 C-7.44164062 0.814375 -6.25828125 0.62875 -5.0390625 0.4375 C-2 0 -2 0 0 0 Z " fill="#EFCAAA" transform="translate(176,302)"/>
<path d="M0 0 C1.4540625 0.0309375 1.4540625 0.0309375 2.9375 0.0625 C3.5625 2.875 3.5625 2.875 3.9375 6.0625 C2.9475 7.5475 2.9475 7.5475 1.9375 9.0625 C-0.6875 9.25 -0.6875 9.25 -3.0625 9.0625 C-3.94140625 2.91015625 -3.94140625 2.91015625 -4.0625 1.0625 C-3.0625 0.0625 -3.0625 0.0625 0 0 Z " fill="#F8837C" transform="translate(178.0625,305.9375)"/>
<path d="M0 0 C1.1446875 0.3403125 1.1446875 0.3403125 2.3125 0.6875 C0.6875 7.4375 0.6875 7.4375 -2.6875 9.6875 C-4.0075 8.6975 -5.3275 7.7075 -6.6875 6.6875 C-6.28750283 4.36751641 -5.78182121 2.82426576 -4.4375 0.875 C-2.6875 -0.3125 -2.6875 -0.3125 0 0 Z " fill="#210403" transform="translate(92.6875,196.3125)"/>
<path d="M0 0 C5.71580122 6.66843475 6.29873986 11.45272078 6 20 C5.67 20 5.34 20 5 20 C4.67 17.03 4.34 14.06 4 11 C1.53721199 11 0.14775881 11.85452863 -2 13 C-2 10.69 -2 8.38 -2 6 C-1.01 6 -0.02 6 1 6 C0.67 4.02 0.34 2.04 0 0 Z " fill="#503E44" transform="translate(209,81)"/>
<path d="M0 0 C0.66 0.33 1.32 0.66 2 1 C1.34 2.65 0.68 4.3 0 6 C-0.99 6 -1.98 6 -3 6 C-4.1161656 9.71429898 -4.3124195 13.39161508 -4.5625 17.25 C-4.64628906 18.51328125 -4.73007813 19.7765625 -4.81640625 21.078125 C-4.87699219 22.04234375 -4.93757812 23.0065625 -5 24 C-7.71294046 21.28705954 -7.3944564 19.66577436 -7.5 15.875 C-7.43347536 9.20775283 -5.68858743 5.62364854 -1 1 C-0.67 0.67 -0.34 0.34 0 0 Z " fill="#757F54" transform="translate(193,82)"/>
<path d="M0 0 C0.99 1.32 1.98 2.64 3 4 C1.02 4 -0.96 4 -3 4 C-3.07427838 7.34252724 -3.06546953 9.8035914 -2 13 C-0.35 13 1.3 13 3 13 C2.01 14.485 2.01 14.485 1 16 C-3.875 15.125 -3.875 15.125 -5 14 C-5.16796875 12.07421875 -5.16796875 12.07421875 -5.1875 9.6875 C-5.20167969 8.90761719 -5.21585937 8.12773437 -5.23046875 7.32421875 C-4.97356 4.73335935 -4.43895729 3.16560682 -3 1 C-2.01 0.67 -1.02 0.34 0 0 Z " fill="#EFA189" transform="translate(315,297)"/>
<path d="M0 0 C2.63250792 0.9049246 3.77457029 1.65648806 5.3125 4 C5.539375 4.66 5.76625 5.32 6 6 C5.67 6.66 5.34 7.32 5 8 C0.52459016 9.26229508 0.52459016 9.26229508 -2 8 C-2 5.69 -2 3.38 -2 1 C-1.34 0.67 -0.68 0.34 0 0 Z " fill="#F9817D" transform="translate(336,298)"/>
<path d="M0 0 C0.598125 0.350625 1.19625 0.70125 1.8125 1.0625 C1.4825 3.3725 1.1525 5.6825 0.8125 8.0625 C-0.5075 8.0625 -1.8275 8.0625 -3.1875 8.0625 C-5.3394437 4.83458445 -5.38836443 3.77849191 -5.1875 0.0625 C-2.1875 -0.9375 -2.1875 -0.9375 0 0 Z " fill="#FA817B" transform="translate(328.1875,302.9375)"/>
<path d="M0 0 C2.64 0.33 5.28 0.66 8 1 C7.649375 1.495 7.29875 1.99 6.9375 2.5 C5.53988399 6.22697603 6.34967141 9.09802848 7 13 C5.1875 14.0625 5.1875 14.0625 3 15 C2.01 14.67 1.02 14.34 0 14 C0.66 13.34 1.32 12.68 2 12 C2.31863689 9.89410923 2.31863689 9.89410923 2.25 7.5625 C2.25515625 6.78003906 2.2603125 5.99757813 2.265625 5.19140625 C2.13176831 2.70955893 2.13176831 2.70955893 0 0 Z " fill="#FDDDBC" transform="translate(316,298)"/>
<path d="M0 0 C3.48388125 0.19907893 5.03046795 1.0236973 7.8125 3.1875 C11.70064253 8.10843039 10.36320152 15.10806426 10 21 C9.67 21 9.34 21 9 21 C8.67 16.71 8.34 12.42 8 8 C7.34 8 6.68 8 6 8 C5.67 6.35 5.34 4.7 5 3 C3.02 3 1.04 3 -1 3 C-0.67 2.01 -0.34 1.02 0 0 Z " fill="#7F8E5C" transform="translate(195,82)"/>
<path d="M0 0 C1.65 0.33 3.3 0.66 5 1 C5.71484375 3.23046875 5.71484375 3.23046875 6 6 C4.56640625 8.23828125 4.56640625 8.23828125 2.5625 10.3125 C1.90378906 11.00988281 1.24507813 11.70726562 0.56640625 12.42578125 C0.04949219 12.94527344 -0.46742188 13.46476562 -1 14 C-1.6171875 12.12890625 -1.6171875 12.12890625 -2 10 C-0.125 7.9375 -0.125 7.9375 2 6 C2.33 5.01 2.66 4.02 3 3 C2.34 2.67 1.68 2.34 1 2 C0.67 1.34 0.34 0.68 0 0 Z " fill="#2D160D" transform="translate(287,289)"/>
<path d="M0 0 C0.33 0.99 0.66 1.98 1 3 C-1.58813092 7.31355153 -5.2045883 11.40152943 -10 13 C-10.66 12.34 -11.32 11.68 -12 11 C-8.04 7.37 -4.08 3.74 0 0 Z " fill="#F2F0EC" transform="translate(429,387)"/>
<path d="M0 0 C1.32 0.66 2.64 1.32 4 2 C3.45276317 5.37462715 2.9451 7.08235 1 10 C-1.91517292 8.92598892 -3.77810176 8.22189824 -6 6 C-5.21625 5.690625 -4.4325 5.38125 -3.625 5.0625 C-1.07669872 4.07124962 -1.07669872 4.07124962 1 3 C0.67 2.01 0.34 1.02 0 0 Z " fill="#2D0F0E" transform="translate(369,162)"/>
<path d="M0 0 C0.66 0.33 1.32 0.66 2 1 C1.67 1.66 1.34 2.32 1 3 C0.91528636 4.81341842 0.89278917 6.62994161 0.90234375 8.4453125 C0.90556641 9.52167969 0.90878906 10.59804687 0.91210938 11.70703125 C0.92048828 12.83496094 0.92886719 13.96289062 0.9375 15.125 C0.94201172 16.26066406 0.94652344 17.39632812 0.95117188 18.56640625 C0.96298385 21.37765638 0.97945493 24.1888023 1 27 C0.67 27 0.34 27 0 27 C-0.08302368 26.16021606 -0.08302368 26.16021606 -0.16772461 25.3034668 C-0.4207582 22.76444195 -0.6790698 20.225981 -0.9375 17.6875 C-1.02451172 16.80642578 -1.11152344 15.92535156 -1.20117188 15.01757812 C-1.28818359 14.17001953 -1.37519531 13.32246094 -1.46484375 12.44921875 C-1.543396 11.66893311 -1.62194824 10.88864746 -1.70288086 10.0847168 C-1.96337997 7.81117999 -1.96337997 7.81117999 -3 5 C-1.5625 2.3125 -1.5625 2.3125 0 0 Z " fill="#30251A" transform="translate(186,88)"/>
<path d="M0 0 C0 3 0 3 -1.375 4.6875 C-3 6 -3 6 -5 6 C-5 6.66 -5 7.32 -5 8 C-6.32 7.67 -7.64 7.34 -9 7 C-9 6.34 -9 5.68 -9 5 C-9.66 4.34 -10.32 3.68 -11 3 C-10.28972656 2.86722656 -9.57945312 2.73445313 -8.84765625 2.59765625 C-7.92855469 2.42105469 -7.00945312 2.24445313 -6.0625 2.0625 C-4.68771484 1.80146484 -4.68771484 1.80146484 -3.28515625 1.53515625 C-1.04710156 1.22285012 -1.04710156 1.22285012 0 0 Z " fill="#200203" transform="translate(234,298)"/>
<path d="M0 0 C0.66 0.33 1.32 0.66 2 1 C-2.67891813 6.09176385 -7.10285722 8.9857143 -14 10 C-11.19533807 7.00618646 -8.38815731 4.8006379 -4.875 2.6875 C-4.00617188 2.15511719 -3.13734375 1.62273437 -2.2421875 1.07421875 C-1.50226563 0.71972656 -0.76234375 0.36523438 0 0 Z " fill="#2F1B1A" transform="translate(137,155)"/>
<path d="M0 0 C5.20900077 1.50937975 9.63166602 3.83375608 14.3125 6.5 C15.40401367 7.10521484 15.40401367 7.10521484 16.51757812 7.72265625 C21.87386871 10.74773742 21.87386871 10.74773742 23 13 C19.63429018 11.6967589 16.40575483 10.25752345 13.1875 8.625 C12.32769531 8.19058594 11.46789062 7.75617188 10.58203125 7.30859375 C9.72996094 6.87675781 8.87789063 6.44492188 8 6 C6.45883 5.22817412 4.91721413 4.45723743 3.375 3.6875 C2.26125 3.130625 1.1475 2.57375 0 2 C0 1.34 0 0.68 0 0 Z " fill="#E8E8E8" transform="translate(358,131)"/>
<path d="M0 0 C0.33 0.66 0.66 1.32 1 2 C-3.03576801 8.25322296 -7.35437938 14.186102 -12 20 C-12.33 19.01 -12.66 18.02 -13 17 C-11.5234375 14.765625 -11.5234375 14.765625 -9.375 12.25 C-6.05023962 8.27195337 -2.95960946 4.2544386 0 0 Z " fill="#DEDEDE" transform="translate(461,380)"/>
<path d="M0 0 C0.99 1.32 1.98 2.64 3 4 C2.01 5.485 2.01 5.485 1 7 C-2.625 7.6875 -2.625 7.6875 -6 8 C-4.55746343 4.63408134 -2.66735273 2.48952921 0 0 Z M2 1 C4 2 4 2 4 2 Z " fill="#1F0202" transform="translate(425,381)"/>
<path d="M0 0 C2.125 0.375 2.125 0.375 4 1 C4.125 3.375 4.125 3.375 4 6 C3.34 6.66 2.68 7.32 2 8 C-0.125 7.625 -0.125 7.625 -2 7 C-2.125 4.625 -2.125 4.625 -2 2 C-1.34 1.34 -0.68 0.68 0 0 Z " fill="#FC807D" transform="translate(153,306)"/>
<path d="M0 0 C0.66 0 1.32 0 2 0 C0.48625275 3.57276904 -1.61894388 5.85680371 -4.375 8.5625 C-5.14585937 9.32691406 -5.91671875 10.09132813 -6.7109375 10.87890625 C-12.23756906 16 -12.23756906 16 -15 16 C-15 15.34 -15 14.68 -15 14 C-10.52941176 10 -10.52941176 10 -8 10 C-8 9.34 -8 8.68 -8 8 C-6.50390625 6.5625 -6.50390625 6.5625 -4.5625 5 C-1.84811762 2.85474956 -1.84811762 2.85474956 0 0 Z " fill="#DBDBDB" transform="translate(445,400)"/>
<path d="M0 0 C1.65 0.33 3.3 0.66 5 1 C4.67 3.64 4.34 6.28 4 9 C2.02 9.33 0.04 9.66 -2 10 C-1.1875 7.0625 -1.1875 7.0625 0 4 C0.99 3.67 1.98 3.34 3 3 C3 2.34 3 1.68 3 1 C2.01 0.67 1.02 0.34 0 0 Z " fill="#2F1311" transform="translate(208,130)"/>
<path d="M0 0 C1.32 0.66 2.64 1.32 4 2 C4 2.99 4 3.98 4 5 C0.32589215 6.17571451 -3.16929183 6.07366746 -7 6 C-6.67 5.01 -6.34 4.02 -6 3 C-3.5 1.875 -3.5 1.875 -1 1 C-0.67 0.67 -0.34 0.34 0 0 Z " fill="#341F20" transform="translate(201,127)"/>
<path d="M0 0 C4.62 2.31 9.24 4.62 14 7 C14 7.99 14 8.98 14 10 C9.125 8.25 9.125 8.25 8 6 C7.030625 5.71125 6.06125 5.4225 5.0625 5.125 C2 4 2 4 0 0 Z " fill="#F3E4C0" transform="translate(338,155)"/>
<path d="M0 0 C2.64 1.32 5.28 2.64 8 4 C6.35 5.32 4.7 6.64 3 8 C2.34 7.34 1.68 6.68 1 6 C1 5.34 1 4.68 1 4 C0.01 3.34 -0.98 2.68 -2 2 C-1.34 2 -0.68 2 0 2 C0 1.34 0 0.68 0 0 Z M-1 7 C-0.34 7.33 0.32 7.66 1 8 C0.01 8 -0.98 8 -2 8 C-1.67 7.67 -1.34 7.34 -1 7 Z " fill="#3B2C2F" transform="translate(158,107)"/>
<path d="M0 0 C1.32 1.32 2.64 2.64 4 4 C3.67 4.99 3.34 5.98 3 7 C2.43796875 6.68289062 1.8759375 6.36578125 1.296875 6.0390625 C-1.15196317 4.93125475 -3.08387855 4.61024601 -5.75 4.375 C-6.94882813 4.26285156 -6.94882813 4.26285156 -8.171875 4.1484375 C-8.77515625 4.09945312 -9.3784375 4.05046875 -10 4 C-10 3.67 -10 3.34 -10 3 C-9.04287109 2.80083984 -9.04287109 2.80083984 -8.06640625 2.59765625 C-7.24011719 2.42105469 -6.41382813 2.24445313 -5.5625 2.0625 C-4.73878906 1.88847656 -3.91507813 1.71445313 -3.06640625 1.53515625 C-1.02338796 1.19247006 -1.02338796 1.19247006 0 0 Z " fill="#3E3226" transform="translate(151,108)"/>
<path d="M0 0 C0.66 0 1.32 0 2 0 C0.67519671 3.97440987 -1.29647462 6.95725267 -3.7578125 10.28515625 C-5.31919984 12.44065639 -6.67265186 14.69460586 -8 17 C-8.33 16.01 -8.66 15.02 -9 14 C-7.64757628 11.47997402 -6.26741903 9.18119063 -4.6875 6.8125 C-4.27048828 6.15830078 -3.85347656 5.50410156 -3.42382812 4.83007812 C-2.34387894 3.17828982 -1.17772995 1.58355519 0 0 Z " fill="#E2E2E2" transform="translate(53,203)"/>
<path d="M0 0 C2.125 0.375 2.125 0.375 4 1 C3.505 1.350625 3.01 1.70125 2.5 2.0625 C0.26936034 4.94374289 0.80019379 7.47009026 1 11 C0.34 11 -0.32 11 -1 11 C-2.55136786 8.53606281 -3.03039129 7.31910854 -2.75 4.375 C-2 2 -2 2 0 0 Z " fill="#7C8758" transform="translate(136,113)"/>
<path d="M0 0 C1.3921875 0.4640625 1.3921875 0.4640625 2.8125 0.9375 C7.77871546 2.3783156 12.86205306 2.64694036 18 3 C18 3.33 18 3.66 18 4 C4.30026631 5.92276964 4.30026631 5.92276964 1.0625 3.625 C0 2 0 2 0 0 Z " fill="#F9E9C1" transform="translate(213,305)"/>
<path d="M0 0 C0.66 0.33 1.32 0.66 2 1 C-0.475 4.465 -0.475 4.465 -3 8 C-4.32 7.67 -5.64 7.34 -7 7 C-6.67 7.99 -6.34 8.98 -6 10 C-7.32 9.34 -8.64 8.68 -10 8 C-6.7 5.36 -3.4 2.72 0 0 Z " fill="#E9D9B3" transform="translate(129,170)"/>
<path d="M0 0 C1.32 0.33 2.64 0.66 4 1 C3.33484375 1.38800781 2.6696875 1.77601562 1.984375 2.17578125 C-0.27402528 3.83228781 -0.27402528 3.83228781 -0.171875 6.48046875 C-0.03265625 7.37378906 0.1065625 8.26710938 0.25 9.1875 C0.37890625 10.08855469 0.5078125 10.98960938 0.640625 11.91796875 C0.75921875 12.60503906 0.8778125 13.29210937 1 14 C0.01 13.67 -0.98 13.34 -2 13 C-3.28571429 5.57142857 -3.28571429 5.57142857 -2 2 C-1.34 2 -0.68 2 0 2 C0 1.34 0 0.68 0 0 Z " fill="#32291A" transform="translate(134,112)"/>
<path d="M0 0 C2.31 0 4.62 0 7 0 C7 0.66 7 1.32 7 2 C5.04783565 3.95216435 3.46800047 4.84826645 1 6 C-0.0625 4.125 -0.0625 4.125 -1 2 C-0.67 1.34 -0.34 0.68 0 0 Z " fill="#423236" transform="translate(192,73)"/>
<path d="M0 0 C5.52677733 -0.19392201 9.75614911 0.2520497 15 2 C15 2.66 15 3.32 15 4 C9.76119922 3.44854729 5.02649303 2.57077907 0 1 C0 0.67 0 0.34 0 0 Z " fill="#D6C5A3" transform="translate(107,409)"/>
<path d="M0 0 C0.99 0 1.98 0 3 0 C2.67 3.63 2.34 7.26 2 11 C1.34 11 0.68 11 0 11 C-0.19406478 9.35492782 -0.38007935 7.70890406 -0.5625 6.0625 C-0.66691406 5.14597656 -0.77132813 4.22945313 -0.87890625 3.28515625 C-0.91886719 2.53105469 -0.95882813 1.77695312 -1 1 C-0.67 0.67 -0.34 0.34 0 0 Z " fill="#FDD7AE" transform="translate(308,300)"/>
<path d="M0 0 C5.28 0.33 10.56 0.66 16 1 C16 1.66 16 2.32 16 3 C10.64580149 4.33854963 7.1564241 3.63286763 2 2 C1.34 1.34 0.68 0.68 0 0 Z " fill="#7F895C" transform="translate(162,136)"/>
<path d="M0 0 C0.99 0.33 1.98 0.66 3 1 C2.67 2.65 2.34 4.3 2 6 C0.35 6.33 -1.3 6.66 -3 7 C-3 5.33333333 -3 3.66666667 -3 2 C-2.01 1.34 -1.02 0.68 0 0 Z " fill="#220507" transform="translate(419,390)"/>
<path d="M0 0 C2 2 2 2 2.125 5.625 C2.08375 6.73875 2.0425 7.8525 2 9 C-0.57213134 10.61949011 -1.67669159 11.04408751 -4.75 10.625 C-5.86375 10.315625 -5.86375 10.315625 -7 10 C-7 9.67 -7 9.34 -7 9 C-5.02 8.34 -3.04 7.68 -1 7 C-0.67 4.69 -0.34 2.38 0 0 Z " fill="#FCD2AF" transform="translate(159,308)"/>
<path d="M0 0 C0.33 2.31 0.66 4.62 1 7 C-0.65 5.35 -2.3 3.7 -4 2 C-4.33 2.66 -4.66 3.32 -5 4 C-5.66 3.67 -6.32 3.34 -7 3 C-7 2.01 -7 1.02 -7 0 C-4.3333581 -1.33332095 -2.83319697 -0.67102033 0 0 Z " fill="#EC917F" transform="translate(330,300)"/>
<path d="M0 0 C4.51045941 2.46025059 8.18504423 5.60282037 12 9 C11.34 9.66 10.68 10.32 10 11 C8.32742645 9.5484451 6.66208242 8.08855591 5 6.625 C3.6078125 5.40683594 3.6078125 5.40683594 2.1875 4.1640625 C1.465625 3.44992188 0.74375 2.73578125 0 2 C0 1.34 0 0.68 0 0 Z " fill="#7A8758" transform="translate(161,119)"/>
<path d="M0 0 C0.66 0.33 1.32 0.66 2 1 C1.25234375 1.54269531 0.5046875 2.08539063 -0.265625 2.64453125 C-1.25046875 3.35996094 -2.2353125 4.07539062 -3.25 4.8125 C-4.22453125 5.52019531 -5.1990625 6.22789063 -6.203125 6.95703125 C-8.48189009 8.62154821 -10.74765822 10.30001823 -13 12 C-11.64891639 8.90989789 -10.20982067 7.03089847 -7.625 4.875 C-7.03976563 4.37742187 -6.45453125 3.87984375 -5.8515625 3.3671875 C-3.95143888 1.96414264 -2.19508738 0.8762283 0 0 Z " fill="#D8D8D8" transform="translate(123,85)"/>
<path d="M0 0 C1.32 0.66 2.64 1.32 4 2 C3.21654285 3.17219543 2.42297164 4.33763668 1.625 5.5 C1.18414062 6.1496875 0.74328125 6.799375 0.2890625 7.46875 C-0.13632813 7.9740625 -0.56171875 8.479375 -1 9 C-1.66 9 -2.32 9 -3 9 C-2.01 6.03 -1.02 3.06 0 0 Z " fill="#E9DAB5" transform="translate(65,244)"/>
<path d="M0 0 C0.66 1.32 1.32 2.64 2 4 C-3.625 6 -3.625 6 -7 6 C-7 4 -7 4 -5.1875 1.875 C-3 0 -3 0 0 0 Z " fill="#1F0503" transform="translate(369,162)"/>
<path d="M0 0 C0.66 0.99 1.32 1.98 2 3 C-0.31 4.98 -2.62 6.96 -5 9 C-5.3125 6.1875 -5.3125 6.1875 -5 3 C-2.5 1.125 -2.5 1.125 0 0 Z " fill="#E9DBB3" transform="translate(424,376)"/>
<path d="M0 0 C0.99 0 1.98 0 3 0 C4.37482707 1.63260714 5.70647667 3.30225062 7 5 C7.99 5.66 8.98 6.32 10 7 C10 7.99 10 8.98 10 10 C6.54804233 8.5741914 4.8985744 6.90253666 2.75 3.875 C1.96882812 2.78832031 1.96882812 2.78832031 1.171875 1.6796875 C0.78515625 1.12539063 0.3984375 0.57109375 0 0 Z " fill="#E9D8B4" transform="translate(212,290)"/>
<path d="M0 0 C0.33 1.32 0.66 2.64 1 4 C1.66 4.33 2.32 4.66 3 5 C-0.80504787 6.79682816 -1.70600835 7.07349791 -6 6 C-4.02 4.02 -2.04 2.04 0 0 Z " fill="#EFE2B9" transform="translate(113,183)"/>
<path d="M0 0 C1.32 0.33 2.64 0.66 4 1 C3.34 1 2.68 1 2 1 C2.33 1.99 2.66 2.98 3 4 C1.75 5.5 1.75 5.5 0 7 C-1.32 7 -2.64 7 -4 7 C-2.79618552 4.50638429 -1.54571278 2.31856917 0 0 Z " fill="#1C0204" transform="translate(102,182)"/>
<path d="M0 0 C0 0.66 0 1.32 0 2 C-1.96875 3.7265625 -1.96875 3.7265625 -4.5 5.625 C-5.3353125 6.25664062 -6.170625 6.88828125 -7.03125 7.5390625 C-7.6809375 8.02117187 -8.330625 8.50328125 -9 9 C-9.66 8.67 -10.32 8.34 -11 8 C-9.94434467 4.71573897 -8.38339648 3.42848444 -5.5 1.75 C-2 0 -2 0 0 0 Z " fill="#E8D9B2" transform="translate(146,161)"/>
<path d="M0 0 C1.5 1.375 1.5 1.375 3 3 C3 3.66 3 4.32 3 5 C5.64 4.67 8.28 4.34 11 4 C11 4.66 11 5.32 11 6 C5.06 6.495 5.06 6.495 -1 7 C-0.67 4.69 -0.34 2.38 0 0 Z " fill="#FDD5B1" transform="translate(332,304)"/>
<path d="M0 0 C0.66 0 1.32 0 2 0 C2 0.66 2 1.32 2 2 C2.99 2.33 3.98 2.66 5 3 C3.6875 5 3.6875 5 2 7 C1.01 7 0.02 7 -1 7 C-1.04254356 5.00045254 -1.04080783 2.99958364 -1 1 C-0.67 0.67 -0.34 0.34 0 0 Z " fill="#769A48" transform="translate(138,117)"/>
<path d="M0 0 C3.625 0.375 3.625 0.375 7 1 C6.67 1.66 6.34 2.32 6 3 C3.69 3 1.38 3 -1 3 C-1 5.31 -1 7.62 -1 10 C-1.33 10 -1.66 10 -2 10 C-2.1953125 3.9453125 -2.1953125 3.9453125 -2 2 C-1.34 1.34 -0.68 0.68 0 0 Z " fill="#EC9D88" transform="translate(163,306)"/>
<path d="M0 0 C1.0828125 0.2475 1.0828125 0.2475 2.1875 0.5 C4.86427545 0.97587119 7.28949487 1.077443 10 1 C9.01 2.485 9.01 2.485 8 4 C5.8359375 4.29296875 5.8359375 4.29296875 3.375 4.1875 C2.55773437 4.16042969 1.74046875 4.13335937 0.8984375 4.10546875 C-0.04128906 4.05326172 -0.04128906 4.05326172 -1 4 C-0.67 2.68 -0.34 1.36 0 0 Z " fill="#3B231A" transform="translate(221,304)"/>
<path d="M0 0 C2.55803184 3.83704776 4.34505724 7.75712791 3.625 12.4375 C3.41875 12.953125 3.2125 13.46875 3 14 C2.67 13.01 2.34 12.02 2 11 C1.34 10.67 0.68 10.34 0 10 C0 6.7 0 3.4 0 0 Z " fill="#D5C4A1" transform="translate(443,265)"/>
<path d="M0 0 C0.33 0.99 0.66 1.98 1 3 C0.00390625 4.82421875 0.00390625 4.82421875 -1.4375 6.6875 C-1.91058594 7.31011719 -2.38367188 7.93273437 -2.87109375 8.57421875 C-3.24363281 9.04472656 -3.61617187 9.51523438 -4 10 C-4.66 9.67 -5.32 9.34 -6 9 C-6 8.34 -6 7.68 -6 7 C-5.34 7 -4.68 7 -4 7 C-3.896875 6.21625 -3.79375 5.4325 -3.6875 4.625 C-3 2 -3 2 0 0 Z " fill="#7A895C" transform="translate(198,123)"/>
<path d="M0 0 C0.99 0 1.98 0 3 0 C4.38671875 1.53125 4.38671875 1.53125 5.6875 3.5 C6.12449219 4.1496875 6.56148437 4.799375 7.01171875 5.46875 C7.33785156 5.9740625 7.66398438 6.479375 8 7 C6 8 6 8 4 7.4375 C1.20275328 5.42697892 0.84934415 3.25581923 0 0 Z " fill="#E9DAB4" transform="translate(205,296)"/>
<path d="M0 0 C0.33 0.99 0.66 1.98 1 3 C2.32 2.67 3.64 2.34 5 2 C3.515 4.475 3.515 4.475 2 7 C-0.475 6.01 -0.475 6.01 -3 5 C-2.01 3.35 -1.02 1.7 0 0 Z M6 0 C6.33 0.66 6.66 1.32 7 2 C6.34 1.67 5.68 1.34 5 1 C5.33 0.67 5.66 0.34 6 0 Z " fill="#1E0104" transform="translate(63,233)"/>
<path d="M0 0 C2.475 0.495 2.475 0.495 5 1 C5 2.98 5 4.96 5 7 C2.525 6.01 2.525 6.01 0 5 C0 3.35 0 1.7 0 0 Z " fill="#1E0204" transform="translate(373,168)"/>
<path d="M0 0 C0.33 0 0.66 0 1 0 C1.13277344 0.83144531 1.26554687 1.66289062 1.40234375 2.51953125 C1.57894531 3.60621094 1.75554687 4.69289063 1.9375 5.8125 C2.19853516 7.43091797 2.19853516 7.43091797 2.46484375 9.08203125 C2.93871921 12.04933356 2.93871921 12.04933356 4 15 C3.01 15 2.02 15 1 15 C-1.32086397 9.675665 -0.91457003 5.56157448 0 0 Z " fill="#CEBE9B" transform="translate(303,276)"/>
<path d="M0 0 C0.80824219 0.10183594 1.61648437 0.20367187 2.44921875 0.30859375 C3.06410156 0.39238281 3.67898437 0.47617187 4.3125 0.5625 C4.3125 0.8925 4.3125 1.2225 4.3125 1.5625 C3.72082031 1.61148437 3.12914062 1.66046875 2.51953125 1.7109375 C-1.87854472 2.12706867 -5.65678897 2.61215595 -9.6875 4.5625 C-8.875 2.625 -8.875 2.625 -7.6875 0.5625 C-4.59271121 -0.46909626 -3.16118607 -0.41232862 0 0 Z " fill="#E7D6B2" transform="translate(164.6875,266.4375)"/>
<path d="M0 0 C0.66 0.33 1.32 0.66 2 1 C-0.51407619 5.28324091 -2.12314139 7.64531705 -7 9 C-5.44499019 5.18315774 -2.96404505 2.80804268 0 0 Z " fill="#F9E9C5" transform="translate(106,190)"/>
<path d="M0 0 C0.66 0.33 1.32 0.66 2 1 C-0.31 3.31 -2.62 5.62 -5 8 C-5.99 7.67 -6.98 7.34 -8 7 C-5.36 4.69 -2.72 2.38 0 0 Z " fill="#E7E7E7" transform="translate(176,57)"/>
<path d="M0 0 C0.33 0 0.66 0 1 0 C1.33 1.65 1.66 3.3 2 5 C3.65 4.67 5.3 4.34 7 4 C7 4.99 7 5.98 7 7 C4.66705225 7.04241723 2.33297433 7.04092937 0 7 C-1 6 -1 6 -1.125 3.5 C-1 1 -1 1 0 0 Z " fill="#F0907F" transform="translate(150,308)"/>
<path d="M0 0 C0.33 0 0.66 0 1 0 C1.12375 0.928125 1.2475 1.85625 1.375 2.8125 C1.81533082 6.13925235 1.81533082 6.13925235 4 9 C2.1875 10.0625 2.1875 10.0625 0 11 C-0.99 10.67 -1.98 10.34 -3 10 C-2.34 9.34 -1.68 8.68 -1 8 C-0.54188325 6.02764667 -0.54188325 6.02764667 -0.375 3.875 C-0.25125 2.59625 -0.1275 1.3175 0 0 Z " fill="#FCCBA8" transform="translate(319,302)"/>
<path d="M0 0 C0.66 1.32 1.32 2.64 2 4 C-1 6 -1 6 -3.6875 5.625 C-4.450625 5.41875 -5.21375 5.2125 -6 5 C-5.195625 4.360625 -4.39125 3.72125 -3.5625 3.0625 C-1.7249496 1.59396498 -1.7249496 1.59396498 0 0 Z " fill="#F1E1B8" transform="translate(288,300)"/>
<path d="M0 0 C2.0625 0.4375 2.0625 0.4375 4 1 C3.34 1 2.68 1 2 1 C2.33 2.65 2.66 4.3 3 6 C1.68 6.33 0.36 6.66 -1 7 C-1.04254356 5.00045254 -1.04080783 2.99958364 -1 1 C-0.67 0.67 -0.34 0.34 0 0 Z " fill="#1E0203" transform="translate(246,291)"/>
<path d="M0 0 C0.66 0.33 1.32 0.66 2 1 C1.01 2.485 1.01 2.485 0 4 C-0.66 4 -1.32 4 -2 4 C-2.268125 4.639375 -2.53625 5.27875 -2.8125 5.9375 C-4 8 -4 8 -7 9 C-5.44499019 5.18315774 -2.96404505 2.80804268 0 0 Z " fill="#F0F0F0" transform="translate(85,167)"/>
<path d="M0 0 C2.64 0.33 5.28 0.66 8 1 C8 1.66 8 2.32 8 3 C6.68 3 5.36 3 4 3 C3.67 3.99 3.34 4.98 3 6 C0 2.25 0 2.25 0 0 Z " fill="#1E0302" transform="translate(335,147)"/>
<path d="M0 0 C0.391875 0.45375 0.78375 0.9075 1.1875 1.375 C3.30832487 3.27642919 5.33042235 4.06204028 8 5 C8 5.66 8 6.32 8 7 C4.17902761 6.46930939 1.93828597 5.50298434 -1 3 C-0.67 2.01 -0.34 1.02 0 0 Z " fill="#31261C" transform="translate(159,114)"/>
<path d="M0 0 C0.33 1.32 0.66 2.64 1 4 C0.01 4.495 0.01 4.495 -1 5 C-1.72693904 6.97888961 -2.39816251 8.97954558 -3 11 C-3.66 11 -4.32 11 -5 11 C-3.77472971 6.94718288 -2.30119506 3.55639236 0 0 Z " fill="#2F1E1C" transform="translate(65,226)"/>
<path d="M0 0 C1.13199353 0.9080162 2.25532363 1.82683826 3.375 2.75 C4.00148438 3.26046875 4.62796875 3.7709375 5.2734375 4.296875 C7.08312318 6.08199481 8.00117455 7.67949644 9 10 C4.71095765 8.4114658 2.67654474 5.56872632 0 2 C0 1.34 0 0.68 0 0 Z " fill="#EADAB9" transform="translate(404,203)"/>
<path d="M0 0 C1.875 0.25 1.875 0.25 4 1 C5.25 3.0625 5.25 3.0625 6 5 C5.34 5.66 4.68 6.32 4 7 C0 2.25 0 2.25 0 0 Z " fill="#E9DAB6" transform="translate(65,378)"/>
<path d="M0 0 C0.66 0 1.32 0 2 0 C2.33 1.65 2.66 3.3 3 5 C1.68 5.99 0.36 6.98 -1 8 C-0.67 5.36 -0.34 2.72 0 0 Z " fill="#E9DDB9" transform="translate(58,261)"/>
<path d="M0 0 C-0.33 1.65 -0.66 3.3 -1 5 C-1.99 5.33 -2.98 5.66 -4 6 C-4.33 4.68 -4.66 3.36 -5 2 C-2 0 -2 0 0 0 Z " fill="#351F25" transform="translate(166,112)"/>
<path d="M0 0 C2.31 0.33 4.62 0.66 7 1 C7 1.99 7 2.98 7 4 C4.97954558 3.39816251 2.97888961 2.72693904 1 2 C0.67 1.34 0.34 0.68 0 0 Z " fill="#E3D2B2" transform="translate(261,294)"/>
<path d="M0 0 C1.2077558 3.62326739 0.54311128 4.64146369 -1 8 C-1.99 8 -2.98 8 -4 8 C-2.87548273 5.0280615 -1.77706209 2.66559313 0 0 Z " fill="#30180E" transform="translate(153,272)"/>
<path d="M0 0 C0 3.10551666 -0.5393715 4.35261084 -2 7 C-3.32 6.67 -4.64 6.34 -6 6 C-4.02 4.02 -2.04 2.04 0 0 Z " fill="#ECDDBA" transform="translate(98,198)"/>
<path d="M0 0 C1.32 0.66 2.64 1.32 4 2 C4 3.32 4 4.64 4 6 C2.35 4.35 0.7 2.7 -1 1 C-0.67 0.67 -0.34 0.34 0 0 Z " fill="#F4EDEC" transform="translate(416,200)"/>
<path d="M0 0 C0.66 0 1.32 0 2 0 C3.625 2 3.625 2 5 4 C4.01 5.485 4.01 5.485 3 7 C1.68 5.35 0.36 3.7 -1 2 C-0.67 1.34 -0.34 0.68 0 0 Z " fill="#E9E1E4" transform="translate(411,194)"/>
<path d="M0 0 C0.99 0.33 1.98 0.66 3 1 C3 2.98 3 4.96 3 7 C1.68 6.01 0.36 5.02 -1 4 C-0.67 2.68 -0.34 1.36 0 0 Z " fill="#2E120B" transform="translate(384,179)"/>
<path d="M0 0 C2.64 1.65 5.28 3.3 8 5 C5 6 5 6 1.8125 4.5625 C0.884375 4.046875 -0.04375 3.53125 -1 3 C-0.67 2.01 -0.34 1.02 0 0 Z " fill="#E8D9B4" transform="translate(366,170)"/>
<path d="M0 0 C0 3 0 3 -2.5 5.6875 C-3.325 6.450625 -4.15 7.21375 -5 8 C-5.66 7.34 -6.32 6.68 -7 6 C-4.69 4.02 -2.38 2.04 0 0 Z " fill="#E5E0DC" transform="translate(424,392)"/>
<path d="M0 0 C2.475 0.495 2.475 0.495 5 1 C5.33 2.65 5.66 4.3 6 6 C5.67 5.34 5.34 4.68 5 4 C4.34 3.67 3.68 3.34 3 3 C1 2 1 2 0 0 Z " fill="#4D3724" transform="translate(287,289)"/>
<path d="M0 0 C1.32 0.33 2.64 0.66 4 1 C3 3 3 3 -0.0625 4.125 C-1.031875 4.41375 -2.00125 4.7025 -3 5 C-2.01 3.35 -1.02 1.7 0 0 Z " fill="#2D1610" transform="translate(309,266)"/>
</svg>
